<svg id="visual" viewBox="0 0 960 540" width="960" height="540" xmlns="http://www.w3.org/2000/svg" xmlns:xlink="http://www.w3.org/1999/xlink" version="1.1"><rect x="0" y="0" width="960" height="540" fill="#282a36"></rect><path d="M0 199L22.8 197C45.7 195 91.3 191 137 195.2C182.7 199.3 228.3 211.7 274 215.5C319.7 219.3 365.3 214.7 411.2 200.3C457 186 503 162 548.8 158.8C594.7 155.7 640.3 173.3 686 174.3C731.7 175.3 777.3 159.7 823 159.8C868.7 160 914.3 176 937.2 184L960 192L960 0L937.2 0C914.3 0 868.7 0 823 0C777.3 0 731.7 0 686 0C640.3 0 594.7 0 548.8 0C503 0 457 0 411.2 0C365.3 0 319.7 0 274 0C228.3 0 182.7 0 137 0C91.3 0 45.7 0 22.8 0L0 0Z" fill="#282a36"></path><path d="M0 123L22.8 122.3C45.7 121.7 91.3 120.3 137 125C182.7 129.7 228.3 140.3 274 145.5C319.7 150.7 365.3 150.3 411.2 151.2C457 152 503 154 548.8 158C594.7 162 640.3 168 686 165C731.7 162 777.3 150 823 139.5C868.7 129 914.3 120 937.2 115.5L960 111L960 0L937.2 0C914.3 0 868.7 0 823 0C777.3 0 731.7 0 686 0C640.3 0 594.7 0 548.8 0C503 0 457 0 411.2 0C365.3 0 319.7 0 274 0C228.3 0 182.7 0 137 0C91.3 0 45.7 0 22.8 0L0 0Z" fill="#5d4660"></path><path d="M0 130L22.8 128.3C45.7 126.7 91.3 123.3 137 125.8C182.7 128.3 228.3 136.7 274 136.5C319.7 136.3 365.3 127.7 411.2 117.8C457 108 503 97 548.8 94.8C594.7 92.7 640.3 99.3 686 104.7C731.7 110 777.3 114 823 109.3C868.7 104.7 914.3 91.3 937.2 84.7L960 78L960 0L937.2 0C914.3 0 868.7 0 823 0C777.3 0 731.7 0 686 0C640.3 0 594.7 0 548.8 0C503 0 457 0 411.2 0C365.3 0 319.7 0 274 0C228.3 0 182.7 0 137 0C91.3 0 45.7 0 22.8 0L0 0Z" fill="#a26076"></path><path d="M0 58L22.8 59.2C45.7 60.3 91.3 62.7 137 69.7C182.7 76.7 228.3 88.3 274 91.3C319.7 94.3 365.3 88.7 411.2 85.8C457 83 503 83 548.8 78C594.7 73 640.3 63 686 61.5C731.7 60 777.3 67 823 70.7C868.7 74.3 914.3 74.7 937.2 74.8L960 75L960 0L937.2 0C914.3 0 868.7 0 823 0C777.3 0 731.7 0 686 0C640.3 0 594.7 0 548.8 0C503 0 457 0 411.2 0C365.3 0 319.7 0 274 0C228.3 0 182.7 0 137 0C91.3 0 45.7 0 22.8 0L0 0Z" fill="#df8375"></path><path d="M0 65L22.8 59.2C45.7 53.3 91.3 41.7 137 37C182.7 32.3 228.3 34.7 274 34.7C319.7 34.7 365.3 32.3 411.2 37.2C457 42 503 54 548.8 53.5C594.7 53 640.3 40 686 34.3C731.7 28.7 777.3 30.3 823 36.3C868.7 42.3 914.3 52.7 937.2 57.8L960 63L960 0L937.2 0C914.3 0 868.7 0 823 0C777.3 0 731.7 0 686 0C640.3 0 594.7 0 548.8 0C503 0 457 0 411.2 0C365.3 0 319.7 0 274 0C228.3 0 182.7 0 137 0C91.3 0 45.7 0 22.8 0L0 0Z" fill="#ffb86c"></path></svg>