<svg id="visual" viewBox="0 0 960 540" width="960" height="540" xmlns="http://www.w3.org/2000/svg" xmlns:xlink="http://www.w3.org/1999/xlink" version="1.1"><rect x="0" y="0" width="960" height="540" fill="#282a36"></rect><path d="M0 392L22.8 388.3C45.7 384.7 91.3 377.3 137 379.2C182.7 381 228.3 392 274 400.2C319.7 408.3 365.3 413.7 411.2 416C457 418.3 503 417.7 548.8 417C594.7 416.3 640.3 415.7 686 408.8C731.7 402 777.3 389 823 382C868.7 375 914.3 374 937.2 373.5L960 373L960 541L937.2 541C914.3 541 868.7 541 823 541C777.3 541 731.7 541 686 541C640.3 541 594.7 541 548.8 541C503 541 457 541 411.2 541C365.3 541 319.7 541 274 541C228.3 541 182.7 541 137 541C91.3 541 45.7 541 22.8 541L0 541Z" fill="#44475a"></path><path d="M0 401L22.8 408.7C45.7 416.3 91.3 431.7 137 440C182.7 448.3 228.3 449.7 274 440.7C319.7 431.7 365.3 412.3 411.2 405.5C457 398.7 503 404.3 548.8 405.3C594.7 406.3 640.3 402.7 686 403C731.7 403.3 777.3 407.7 823 408.2C868.7 408.7 914.3 405.3 937.2 403.7L960 402L960 541L937.2 541C914.3 541 868.7 541 823 541C777.3 541 731.7 541 686 541C640.3 541 594.7 541 548.8 541C503 541 457 541 411.2 541C365.3 541 319.7 541 274 541C228.3 541 182.7 541 137 541C91.3 541 45.7 541 22.8 541L0 541Z" fill="#5a5b82"></path><path d="M0 452L22.8 455.2C45.7 458.3 91.3 464.7 137 460.5C182.7 456.3 228.3 441.7 274 435.7C319.7 429.7 365.3 432.3 411.2 438.3C457 444.3 503 453.7 548.8 459.7C594.7 465.7 640.3 468.3 686 463.7C731.7 459 777.3 447 823 441.3C868.7 435.7 914.3 436.3 937.2 436.7L960 437L960 541L937.2 541C914.3 541 868.7 541 823 541C777.3 541 731.7 541 686 541C640.3 541 594.7 541 548.8 541C503 541 457 541 411.2 541C365.3 541 319.7 541 274 541C228.3 541 182.7 541 137 541C91.3 541 45.7 541 22.8 541L0 541Z" fill="#756faa"></path><path d="M0 461L22.8 463.3C45.7 465.7 91.3 470.3 137 475.3C182.7 480.3 228.3 485.7 274 486.7C319.7 487.7 365.3 484.3 411.2 484.8C457 485.3 503 489.7 548.8 491.7C594.7 493.7 640.3 493.3 686 491.8C731.7 490.3 777.3 487.7 823 483.2C868.7 478.7 914.3 472.3 937.2 469.2L960 466L960 541L937.2 541C914.3 541 868.7 541 823 541C777.3 541 731.7 541 686 541C640.3 541 594.7 541 548.8 541C503 541 457 541 411.2 541C365.3 541 319.7 541 274 541C228.3 541 182.7 541 137 541C91.3 541 45.7 541 22.8 541L0 541Z" fill="#9682d2"></path><path d="M0 504L22.8 506C45.7 508 91.3 512 137 512C182.7 512 228.3 508 274 503.3C319.7 498.7 365.3 493.3 411.2 493.3C457 493.3 503 498.7 548.8 500.5C594.7 502.3 640.3 500.7 686 503.3C731.7 506 777.3 513 823 512.3C868.7 511.7 914.3 503.3 937.2 499.2L960 495L960 541L937.2 541C914.3 541 868.7 541 823 541C777.3 541 731.7 541 686 541C640.3 541 594.7 541 548.8 541C503 541 457 541 411.2 541C365.3 541 319.7 541 274 541C228.3 541 182.7 541 137 541C91.3 541 45.7 541 22.8 541L0 541Z" fill="#bd93f9"></path></svg>