<svg id="visual" viewBox="0 0 960 540" width="960" height="540" xmlns="http://www.w3.org/2000/svg" xmlns:xlink="http://www.w3.org/1999/xlink" version="1.1"><rect x="0" y="0" width="960" height="540" fill="#282a36"></rect><path d="M0 138L22.8 144.8C45.7 151.7 91.3 165.3 137 167.2C182.7 169 228.3 159 274 158.2C319.7 157.3 365.3 165.7 411.2 165.3C457 165 503 156 548.8 158C594.7 160 640.3 173 686 180.5C731.7 188 777.3 190 823 181.5C868.7 173 914.3 154 937.2 144.5L960 135L960 0L937.2 0C914.3 0 868.7 0 823 0C777.3 0 731.7 0 686 0C640.3 0 594.7 0 548.8 0C503 0 457 0 411.2 0C365.3 0 319.7 0 274 0C228.3 0 182.7 0 137 0C91.3 0 45.7 0 22.8 0L0 0Z" fill="#282a36"></path><path d="M0 158L22.8 149.8C45.7 141.7 91.3 125.3 137 126.7C182.7 128 228.3 147 274 146.7C319.7 146.3 365.3 126.7 411.2 124C457 121.3 503 135.7 548.8 137.7C594.7 139.7 640.3 129.3 686 122.7C731.7 116 777.3 113 823 117.7C868.7 122.3 914.3 134.7 937.2 140.8L960 147L960 0L937.2 0C914.3 0 868.7 0 823 0C777.3 0 731.7 0 686 0C640.3 0 594.7 0 548.8 0C503 0 457 0 411.2 0C365.3 0 319.7 0 274 0C228.3 0 182.7 0 137 0C91.3 0 45.7 0 22.8 0L0 0Z" fill="#424465"></path><path d="M0 141L22.8 130.7C45.7 120.3 91.3 99.7 137 90.5C182.7 81.3 228.3 83.7 274 87C319.7 90.3 365.3 94.7 411.2 98.7C457 102.7 503 106.3 548.8 104.3C594.7 102.3 640.3 94.7 686 98.3C731.7 102 777.3 117 823 117.3C868.7 117.7 914.3 103.3 937.2 96.2L960 89L960 0L937.2 0C914.3 0 868.7 0 823 0C777.3 0 731.7 0 686 0C640.3 0 594.7 0 548.8 0C503 0 457 0 411.2 0C365.3 0 319.7 0 274 0C228.3 0 182.7 0 137 0C91.3 0 45.7 0 22.8 0L0 0Z" fill="#645f96"></path><path d="M0 98L22.8 96C45.7 94 91.3 90 137 84C182.7 78 228.3 70 274 66.7C319.7 63.3 365.3 64.7 411.2 67.8C457 71 503 76 548.8 81.7C594.7 87.3 640.3 93.7 686 94.2C731.7 94.7 777.3 89.3 823 87C868.7 84.7 914.3 85.3 937.2 85.7L960 86L960 0L937.2 0C914.3 0 868.7 0 823 0C777.3 0 731.7 0 686 0C640.3 0 594.7 0 548.8 0C503 0 457 0 411.2 0C365.3 0 319.7 0 274 0C228.3 0 182.7 0 137 0C91.3 0 45.7 0 22.8 0L0 0Z" fill="#8d79c8"></path><path d="M0 55L22.8 53.5C45.7 52 91.3 49 137 49.7C182.7 50.3 228.3 54.7 274 54C319.7 53.3 365.3 47.7 411.2 41.7C457 35.7 503 29.3 548.8 32.5C594.7 35.7 640.3 48.3 686 54.3C731.7 60.3 777.3 59.7 823 53.8C868.7 48 914.3 37 937.2 31.5L960 26L960 0L937.2 0C914.3 0 868.7 0 823 0C777.3 0 731.7 0 686 0C640.3 0 594.7 0 548.8 0C503 0 457 0 411.2 0C365.3 0 319.7 0 274 0C228.3 0 182.7 0 137 0C91.3 0 45.7 0 22.8 0L0 0Z" fill="#bd93f9"></path></svg>