<svg id="visual" viewBox="0 0 960 540" width="960" height="540" xmlns="http://www.w3.org/2000/svg" xmlns:xlink="http://www.w3.org/1999/xlink" version="1.1"><rect x="0" y="0" width="960" height="540" fill="#282a36"></rect><path d="M0 323L22.8 322C45.7 321 91.3 319 137 324.5C182.7 330 228.3 343 274 347.5C319.7 352 365.3 348 411.2 353.5C457 359 503 374 548.8 380.8C594.7 387.7 640.3 386.3 686 374.8C731.7 363.3 777.3 341.7 823 339.7C868.7 337.7 914.3 355.3 937.2 364.2L960 373L960 541L937.2 541C914.3 541 868.7 541 823 541C777.3 541 731.7 541 686 541C640.3 541 594.7 541 548.8 541C503 541 457 541 411.2 541C365.3 541 319.7 541 274 541C228.3 541 182.7 541 137 541C91.3 541 45.7 541 22.8 541L0 541Z" fill="#282a36"></path><path d="M0 385L22.8 381.3C45.7 377.7 91.3 370.3 137 375C182.7 379.7 228.3 396.3 274 404.2C319.7 412 365.3 411 411.2 403.8C457 396.7 503 383.3 548.8 385.2C594.7 387 640.3 404 686 404.7C731.7 405.3 777.3 389.7 823 382.2C868.7 374.7 914.3 375.3 937.2 375.7L960 376L960 541L937.2 541C914.3 541 868.7 541 823 541C777.3 541 731.7 541 686 541C640.3 541 594.7 541 548.8 541C503 541 457 541 411.2 541C365.3 541 319.7 541 274 541C228.3 541 182.7 541 137 541C91.3 541 45.7 541 22.8 541L0 541Z" fill="#5d4660"></path><path d="M0 454L22.8 444.2C45.7 434.3 91.3 414.7 137 415.3C182.7 416 228.3 437 274 438.8C319.7 440.7 365.3 423.3 411.2 415.3C457 407.3 503 408.7 548.8 410.2C594.7 411.7 640.3 413.3 686 417.8C731.7 422.3 777.3 429.7 823 429.3C868.7 429 914.3 421 937.2 417L960 413L960 541L937.2 541C914.3 541 868.7 541 823 541C777.3 541 731.7 541 686 541C640.3 541 594.7 541 548.8 541C503 541 457 541 411.2 541C365.3 541 319.7 541 274 541C228.3 541 182.7 541 137 541C91.3 541 45.7 541 22.8 541L0 541Z" fill="#a26076"></path><path d="M0 488L22.8 485C45.7 482 91.3 476 137 474.3C182.7 472.7 228.3 475.3 274 474.5C319.7 473.7 365.3 469.3 411.2 467.2C457 465 503 465 548.8 464.2C594.7 463.3 640.3 461.7 686 464.8C731.7 468 777.3 476 823 474.5C868.7 473 914.3 462 937.2 456.5L960 451L960 541L937.2 541C914.3 541 868.7 541 823 541C777.3 541 731.7 541 686 541C640.3 541 594.7 541 548.8 541C503 541 457 541 411.2 541C365.3 541 319.7 541 274 541C228.3 541 182.7 541 137 541C91.3 541 45.7 541 22.8 541L0 541Z" fill="#df8375"></path><path d="M0 489L22.8 490.2C45.7 491.3 91.3 493.7 137 498.2C182.7 502.7 228.3 509.3 274 508.2C319.7 507 365.3 498 411.2 493.7C457 489.3 503 489.7 548.8 490.2C594.7 490.7 640.3 491.3 686 495.7C731.7 500 777.3 508 823 504.8C868.7 501.7 914.3 487.3 937.2 480.2L960 473L960 541L937.2 541C914.3 541 868.7 541 823 541C777.3 541 731.7 541 686 541C640.3 541 594.7 541 548.8 541C503 541 457 541 411.2 541C365.3 541 319.7 541 274 541C228.3 541 182.7 541 137 541C91.3 541 45.7 541 22.8 541L0 541Z" fill="#ffb86c"></path></svg>